<svg width="312" height="268" viewBox="0 0 312 268" fill="none" xmlns="http://www.w3.org/2000/svg">
  <path d="M203.627 21.4005C200.578 8.50199 184.772 -1.11597 170.995 0.726669C167.52 1.11 164.25 2.47967 161.622 4.6536C158.104 7.67432 158.939 11.1542 157.199 14.924C156.982 15.4593 156.629 15.9365 156.171 16.3145C155.714 16.6924 155.165 16.9596 154.573 17.0929C151.151 17.6487 148.391 14.4347 144.943 14.4105C142.375 14.4105 139.037 15.7396 137.586 17.8481C136.244 19.8116 137.181 23.237 134.755 24.536C132.046 25.998 128.746 23.225 125.812 24.2278C122.172 25.4724 123.828 27.9675 122.506 29.5262C121.183 31.0849 118.532 30.4566 114.885 30.1303C111.239 29.8041 108.266 33.87 108.266 33.87H223.182C223.182 33.87 224.171 32.3113 219.87 26.0765C215.568 19.8418 209.598 24.2097 206.953 24.2097C204.308 24.2097 203.627 21.4307 203.627 21.4005Z" stroke="#263238" stroke-miterlimit="10"/>
  <path d="M82.9844 67.7322C80.9108 58.9661 70.1767 52.4353 60.8165 53.6859C58.4622 53.9466 56.2467 54.8712 54.4608 56.3381C52.0726 58.4042 52.6375 60.7544 51.4563 63.322C51.3069 63.6847 51.0666 64.0082 50.7559 64.2648C50.4451 64.5215 50.0732 64.7037 49.6716 64.7961C47.3476 65.1706 45.4729 62.9836 43.1104 62.9836C41.3514 62.9836 39.098 63.8838 38.1158 65.3156C37.1977 66.6508 37.8397 68.9768 36.1898 69.8648C34.3473 70.8556 32.1067 68.9707 30.1166 69.6534C27.6385 70.4992 28.7684 72.1908 27.8632 73.2782C26.958 74.3657 25.1668 73.9126 22.6887 73.7012C20.2107 73.4897 18.1948 76.2386 18.1948 76.2386H96.2607C96.2607 76.2386 96.9348 75.1813 94.0138 70.9463C91.0927 66.7112 87.0353 69.6776 85.2378 69.6776C83.4402 69.6776 82.9908 67.7383 82.9844 67.7322Z" stroke="#263238" stroke-miterlimit="10"/>
  <path d="M299.4 108.222C298.026 102.416 290.913 98.0844 284.711 98.9181C283.152 99.0882 281.683 99.699 280.5 100.67C278.921 102.042 279.293 103.6 278.51 105.298C278.413 105.539 278.254 105.755 278.048 105.925C277.842 106.096 277.595 106.216 277.329 106.277C275.788 106.524 274.542 105.068 272.982 105.068C272.342 105.073 271.711 105.214 271.137 105.482C270.563 105.75 270.061 106.138 269.67 106.615C269.066 107.497 269.49 109.031 268.386 109.636C267.159 110.288 265.676 109.031 264.36 109.491C262.717 110.052 263.462 111.176 262.865 111.877C262.268 112.578 261.08 112.3 259.436 112.161C257.793 112.022 256.458 113.84 256.458 113.84H308.183C308.183 113.84 308.632 113.14 306.693 110.336C304.754 107.533 302.071 109.491 300.883 109.491C299.696 109.491 299.407 108.228 299.4 108.222Z" stroke="#263238" stroke-miterlimit="10"/>
  <path d="M0.26416 181.498C0.26416 181.498 115.11 109.563 123.642 110.904C132.174 112.245 212.05 170.902 212.05 170.902" stroke="#263238" stroke-miterlimit="10"/>
  <path d="M96.6196 123.622C96.6196 123.622 103.04 121.61 103.04 123.283C103.04 124.957 100.549 128.304 103.04 128.636C105.53 128.968 119.397 120.945 119.397 120.945C119.397 120.945 120.816 127.301 123.66 127.971C126.504 128.642 126.87 122.28 126.87 122.28L130.427 124.957V121.278L136.571 123.422L136.468 118.589" stroke="#263238" stroke-miterlimit="10"/>
  <path d="M150.817 208.449C150.817 208.449 265.662 136.508 274.194 137.849C282.726 139.19 310.146 159.81 310.146 159.81" stroke="#263238" stroke-miterlimit="10"/>
  <path d="M247.173 150.56C247.173 150.56 253.593 148.554 253.593 150.228C253.593 151.901 251.102 155.248 253.593 155.581C256.084 155.913 269.951 147.884 269.951 147.884C269.951 147.884 271.37 154.246 274.214 154.916C277.058 155.587 277.424 149.225 277.424 149.225L280.98 151.901V148.222L287.124 150.367L287.022 145.534" stroke="#263238" stroke-miterlimit="10"/>
  <path d="M237.126 183.976L238.101 180.29C239.084 176.599 238.101 156.547 238.352 154.916C238.602 153.285 234.673 163.211 234.673 163.211C235.34 160.709 235.831 158.168 236.143 155.605C236.304 153.672 236.869 143.734 237.119 135.898C236.811 132.877 236.477 129.814 236.124 126.781C235.097 129.198 233.697 135.094 233.697 135.094C233.697 135.094 232.959 114.813 233.697 112.505C234.436 110.198 230.487 115.961 230.487 115.961C230.487 115.961 231.707 107.437 231.958 103.981C232.099 101.939 231.316 96.5318 230.635 92.1095C230.192 90.0373 229.736 88.0436 229.274 86.1526C228.292 87.9651 226.135 93.6259 226.321 92.913C226.565 91.9947 226.321 76.7824 226.321 76.7824L226.507 76.5407C224.26 70.0703 221.827 66.1615 219.285 66.1615C216.742 66.1615 214.329 70.0341 212.094 76.432L212.338 76.7582C212.338 76.7582 212.094 91.9705 212.338 92.8888C212.531 93.6199 210.278 87.7234 209.321 86.0197C208.955 87.512 208.596 89.0706 208.242 90.6837C207.536 95.2933 206.541 101.691 206.702 103.975C206.952 107.431 208.172 115.955 208.172 115.955C208.172 115.955 204.256 110.198 204.962 112.499C205.668 114.801 204.962 135.088 204.962 135.088C204.962 135.088 203.498 128.896 202.465 126.63C202.131 129.488 201.823 132.364 201.521 135.233C201.758 143.166 202.349 153.617 202.516 155.605C202.828 158.168 203.319 160.709 203.986 163.211C203.986 163.211 200.141 153.321 200.359 154.916C200.577 156.511 199.627 176.581 200.609 180.29L201.585 183.976L199.017 181.976C199.492 215.5 208.409 212.098 219.336 212.098C230.263 212.098 239.167 215.5 239.655 182.048L237.126 183.976Z" fill="#265C38"/>
  <path opacity="0.22" d="M237.126 183.976L238.101 180.29C239.084 176.599 238.101 156.547 238.352 154.916C238.602 153.285 234.673 163.211 234.673 163.211C235.34 160.709 235.831 158.168 236.143 155.605C236.304 153.672 236.869 143.734 237.119 135.898C236.811 132.877 236.477 129.814 236.124 126.781C235.097 129.198 233.697 135.094 233.697 135.094C233.697 135.094 232.959 114.813 233.697 112.505C234.436 110.198 230.487 115.961 230.487 115.961C230.487 115.961 231.707 107.437 231.958 103.981C232.099 101.939 231.316 96.5318 230.635 92.1095C230.192 90.0373 229.736 88.0436 229.274 86.1526C228.292 87.9651 226.135 93.6259 226.321 92.913C226.565 91.9947 226.321 76.7824 226.321 76.7824L226.507 76.5407C224.26 70.0703 221.827 66.1615 219.285 66.1615C216.742 66.1615 214.329 70.0341 212.094 76.432L212.338 76.7582C212.338 76.7582 212.094 91.9705 212.338 92.8888C212.531 93.6199 210.278 87.7234 209.321 86.0197C208.955 87.512 208.596 89.0706 208.242 90.6837C207.536 95.2933 206.541 101.691 206.702 103.975C206.952 107.431 208.172 115.955 208.172 115.955C208.172 115.955 204.256 110.198 204.962 112.499C205.668 114.801 204.962 135.088 204.962 135.088C204.962 135.088 203.498 128.896 202.465 126.63C202.131 129.488 201.823 132.364 201.521 135.233C201.758 143.166 202.349 153.617 202.516 155.605C202.828 158.168 203.319 160.709 203.986 163.211C203.986 163.211 200.141 153.321 200.359 154.916C200.577 156.511 199.627 176.581 200.609 180.29L201.585 183.976L199.017 181.976C199.492 215.5 208.409 212.098 219.336 212.098C230.263 212.098 239.167 215.5 239.655 182.048L237.126 183.976Z" fill="white"/>
  <path d="M231.714 170.835L219.767 186.93L219.234 154.886L231.47 141.794L219.176 151.581L218.695 122.631L217.424 166.51L207.466 154.01L217.263 172.013L214.708 260.249H220.993L219.889 194.367L231.714 170.835Z" fill="#949494"/>
  <path d="M188.502 189.425L189.414 185.999C190.325 182.58 189.414 163.96 189.645 162.438C189.876 160.915 186.229 170.141 186.229 170.141C186.847 167.817 187.304 165.458 187.597 163.078C187.744 161.266 188.271 152.053 188.502 144.773C188.213 141.957 187.905 139.13 187.578 136.315C186.621 138.532 185.324 144.03 185.324 144.03C185.324 144.03 184.637 125.198 185.324 123.06C186.011 120.921 182.365 126.268 182.365 126.268C182.365 126.268 183.501 118.347 183.732 115.139C183.86 113.242 183.129 108.228 182.499 104.12C182.095 102.193 181.671 100.344 181.215 98.5859C180.304 100.29 178.294 105.527 178.474 104.863C178.699 104.011 178.474 89.8862 178.474 89.8862L178.641 89.6566C176.561 83.6514 174.301 80.0266 171.939 80.0266C169.576 80.0266 167.336 83.6212 165.262 89.5841L165.487 89.8862C165.487 89.8862 165.262 104.011 165.487 104.863C165.666 105.54 163.561 100.066 162.688 98.4832C162.35 99.8727 162.016 101.317 161.686 102.815C161.044 107.098 160.107 113.037 160.255 115.139C160.486 118.347 161.622 126.268 161.622 126.268C161.622 126.268 157.982 120.915 158.662 123.06C159.343 125.204 158.662 144.03 158.662 144.03C158.662 144.03 157.308 138.278 156.345 136.176C156.03 138.834 155.741 141.504 155.465 144.162C155.684 151.533 156.242 161.236 156.39 163.084C156.686 165.47 157.147 167.835 157.77 170.165C157.77 170.165 154.13 160.964 154.355 162.462C154.579 163.96 153.674 182.58 154.586 186.024L155.497 189.449L153.083 187.594C153.526 218.726 161.808 215.56 171.952 215.56C182.095 215.56 190.364 218.72 190.82 187.661L188.502 189.425Z" fill="#265C38"/>
  <path opacity="0.22" d="M188.502 189.425L189.414 185.999C190.325 182.58 189.414 163.96 189.645 162.438C189.876 160.915 186.229 170.141 186.229 170.141C186.847 167.817 187.304 165.458 187.597 163.078C187.744 161.266 188.271 152.053 188.502 144.773C188.213 141.957 187.905 139.13 187.578 136.315C186.621 138.532 185.324 144.03 185.324 144.03C185.324 144.03 184.637 125.198 185.324 123.06C186.011 120.921 182.365 126.268 182.365 126.268C182.365 126.268 183.501 118.347 183.732 115.139C183.86 113.242 183.129 108.228 182.499 104.12C182.095 102.193 181.671 100.344 181.215 98.5859C180.304 100.29 178.294 105.527 178.474 104.863C178.699 104.011 178.474 89.8862 178.474 89.8862L178.641 89.6566C176.561 83.6514 174.301 80.0266 171.939 80.0266C169.576 80.0266 167.336 83.6212 165.262 89.5841L165.487 89.8862C165.487 89.8862 165.262 104.011 165.487 104.863C165.666 105.54 163.561 100.066 162.688 98.4832C162.35 99.8727 162.016 101.317 161.686 102.815C161.044 107.098 160.107 113.037 160.255 115.139C160.486 118.347 161.622 126.268 161.622 126.268C161.622 126.268 157.982 120.915 158.662 123.06C159.343 125.204 158.662 144.03 158.662 144.03C158.662 144.03 157.308 138.278 156.345 136.176C156.03 138.834 155.741 141.504 155.465 144.162C155.684 151.533 156.242 161.236 156.39 163.084C156.686 165.47 157.147 167.835 157.77 170.165C157.77 170.165 154.13 160.964 154.355 162.462C154.579 163.96 153.674 182.58 154.586 186.024L155.497 189.449L153.083 187.594C153.526 218.726 161.808 215.56 171.952 215.56C182.095 215.56 190.364 218.72 190.82 187.661L188.502 189.425Z" fill="white"/>
  <path d="M183.482 177.227L172.388 192.168L171.894 162.42L183.251 150.258L171.843 159.345L171.393 132.466L170.212 173.204L160.967 161.604L170.064 178.321L167.689 260.249H173.525L172.504 199.079L183.482 177.227Z" fill="#949494"/>
  <path d="M47.4517 189.425L48.3633 185.999C49.2749 182.58 48.3633 163.96 48.588 162.438C48.8127 160.915 45.179 170.141 45.179 170.141C45.7965 167.817 46.2533 165.458 46.5465 163.078C46.6941 161.266 47.1885 152.053 47.4517 144.773C47.1628 141.957 46.8546 139.13 46.5208 136.315C45.5706 138.556 44.2674 144.042 44.2674 144.042C44.2674 144.042 43.5869 125.21 44.2674 123.072C44.9479 120.933 41.3143 126.28 41.3143 126.28C41.3143 126.28 42.4506 118.359 42.6753 115.151C42.8101 113.254 42.0782 108.24 41.4491 104.132C41.0382 102.205 40.6209 100.356 40.1651 98.5979C39.2471 100.302 37.244 105.54 37.4238 104.875C37.6485 104.023 37.4238 89.8983 37.4238 89.8983L37.5907 89.6687C35.5107 83.6635 33.2509 80.0387 30.8884 80.0387C28.5258 80.0387 26.311 83.6273 24.2373 89.6083L24.462 89.9104C24.462 89.9104 24.2373 104.035 24.462 104.887C24.6418 105.564 22.5361 100.09 21.663 98.5073C21.3206 99.8969 20.9867 101.341 20.6615 102.839C20.0195 107.122 19.0822 113.061 19.2298 115.164C19.4609 118.372 20.5973 126.292 20.5973 126.292C20.5973 126.292 16.9572 120.939 17.6377 123.084C18.3182 125.229 17.6377 144.054 17.6377 144.054C17.6377 144.054 16.2831 138.302 15.3201 136.2C15.0055 138.858 14.7166 141.528 14.4406 144.187C14.6589 151.557 15.211 161.26 15.3651 163.108C15.6548 165.488 16.1117 167.848 16.7325 170.171C16.7325 170.171 13.0924 160.958 13.3235 162.462C13.5546 163.966 12.643 182.58 13.5546 186.024L14.4599 189.449L12.0396 187.57C12.4825 218.702 20.7578 215.536 30.9076 215.536C41.0575 215.536 49.3199 218.696 49.7757 187.637L47.4517 189.425Z" fill="#265C38"/>
  <path opacity="0.22" d="M47.4517 189.425L48.3633 185.999C49.2749 182.58 48.3633 163.96 48.588 162.438C48.8127 160.915 45.179 170.141 45.179 170.141C45.7965 167.817 46.2533 165.458 46.5465 163.078C46.6941 161.266 47.1885 152.053 47.4517 144.773C47.1628 141.957 46.8546 139.13 46.5208 136.315C45.5706 138.556 44.2674 144.042 44.2674 144.042C44.2674 144.042 43.5869 125.21 44.2674 123.072C44.9479 120.933 41.3143 126.28 41.3143 126.28C41.3143 126.28 42.4506 118.359 42.6753 115.151C42.8101 113.254 42.0782 108.24 41.4491 104.132C41.0382 102.205 40.6209 100.356 40.1651 98.5979C39.2471 100.302 37.244 105.54 37.4238 104.875C37.6485 104.023 37.4238 89.8983 37.4238 89.8983L37.5907 89.6687C35.5107 83.6635 33.2509 80.0387 30.8884 80.0387C28.5258 80.0387 26.311 83.6273 24.2373 89.6083L24.462 89.9104C24.462 89.9104 24.2373 104.035 24.462 104.887C24.6418 105.564 22.5361 100.09 21.663 98.5073C21.3206 99.8969 20.9867 101.341 20.6615 102.839C20.0195 107.122 19.0822 113.061 19.2298 115.164C19.4609 118.372 20.5973 126.292 20.5973 126.292C20.5973 126.292 16.9572 120.939 17.6377 123.084C18.3182 125.229 17.6377 144.054 17.6377 144.054C17.6377 144.054 16.2831 138.302 15.3201 136.2C15.0055 138.858 14.7166 141.528 14.4406 144.187C14.6589 151.557 15.211 161.26 15.3651 163.108C15.6548 165.488 16.1117 167.848 16.7325 170.171C16.7325 170.171 13.0924 160.958 13.3235 162.462C13.5546 163.966 12.643 182.58 13.5546 186.024L14.4599 189.449L12.0396 187.57C12.4825 218.702 20.7578 215.536 30.9076 215.536C41.0575 215.536 49.3199 218.696 49.7757 187.637L47.4517 189.425Z" fill="white"/>
  <path d="M42.4301 177.227L31.3365 192.168L30.8422 162.42L42.199 150.258L30.7908 159.345L30.3414 132.466L29.1602 173.204L19.9155 161.604L29.0125 178.321L26.6372 260.249H32.4728L31.4521 199.079L42.4301 177.227Z" fill="#949494"/>
  <path d="M96.4542 169.959L97.6162 165.597C98.7718 161.23 97.6162 137.493 97.9051 135.584C98.194 133.675 93.5716 145.407 93.5716 145.407C94.3602 142.443 94.9414 139.434 95.3114 136.399C95.504 134.11 96.1717 122.347 96.467 113.067C96.1075 109.473 95.7095 105.866 95.2858 102.283C94.0724 105.105 92.4161 112.119 92.4161 112.119C92.4161 112.119 91.543 88.11 92.4161 85.3793C93.2892 82.6486 88.6476 89.4754 88.6476 89.4754C88.6476 89.4754 90.0792 79.3983 90.3617 75.2841C90.5286 72.8675 89.5913 66.4696 88.7952 61.2378C88.2752 58.7789 87.736 56.4046 87.1903 54.1874C86.0219 56.3563 83.4667 63.0321 83.6914 62.1863C83.9803 61.0988 83.6914 43.0893 83.6914 43.0893L83.9097 42.7993C81.2519 35.1448 78.3693 30.5171 75.3648 30.5171C72.3603 30.5171 69.497 35.1085 66.8521 42.7087L67.1345 43.0893C67.1345 43.0893 66.8456 61.0988 67.1345 62.1863C67.3656 63.0502 64.695 56.0723 63.5715 54.0545C63.1435 55.8266 62.7155 57.6673 62.2875 59.5764C61.4529 65.0136 60.2781 72.6077 60.4707 75.2841C60.7596 79.3802 62.2105 89.4754 62.2105 89.4754C62.2105 89.4754 57.5689 82.6486 58.442 85.3793C59.3151 88.11 58.442 112.119 58.442 112.119C58.442 112.119 56.7086 104.784 55.4824 102.096C55.0844 105.487 54.7099 108.882 54.3589 112.282C54.6414 121.67 55.3476 134.031 55.5402 136.399C55.9103 139.434 56.4914 142.443 57.28 145.407C57.28 145.407 52.6448 133.675 52.9401 135.584C53.2355 137.493 52.067 161.23 53.229 165.597L54.4103 169.959L51.3159 167.603C51.8809 207.283 62.4352 203.248 75.3713 203.248C88.3073 203.248 98.8424 207.277 99.4202 167.676L96.4542 169.959Z" fill="#265C38"/>
  <path opacity="0.22" d="M96.4542 169.959L97.6162 165.597C98.7718 161.23 97.6162 137.493 97.9051 135.584C98.194 133.675 93.5716 145.407 93.5716 145.407C94.3602 142.443 94.9414 139.434 95.3114 136.399C95.504 134.11 96.1717 122.347 96.467 113.067C96.1075 109.473 95.7095 105.866 95.2858 102.283C94.0724 105.105 92.4161 112.119 92.4161 112.119C92.4161 112.119 91.543 88.11 92.4161 85.3793C93.2892 82.6486 88.6476 89.4754 88.6476 89.4754C88.6476 89.4754 90.0792 79.3983 90.3617 75.2841C90.5286 72.8675 89.5913 66.4696 88.7952 61.2378C88.2752 58.7789 87.736 56.4046 87.1903 54.1874C86.0219 56.3563 83.4667 63.0321 83.6914 62.1863C83.9803 61.0988 83.6914 43.0893 83.6914 43.0893L83.9097 42.7993C81.2519 35.1448 78.3693 30.5171 75.3648 30.5171C72.3603 30.5171 69.497 35.1085 66.8521 42.7087L67.1345 43.0893C67.1345 43.0893 66.8456 61.0988 67.1345 62.1863C67.3656 63.0502 64.695 56.0723 63.5715 54.0545C63.1435 55.8266 62.7155 57.6673 62.2875 59.5764C61.4529 65.0136 60.2781 72.6077 60.4707 75.2841C60.7596 79.3802 62.2105 89.4754 62.2105 89.4754C62.2105 89.4754 57.5689 82.6486 58.442 85.3793C59.3151 88.11 58.442 112.119 58.442 112.119C58.442 112.119 56.7086 104.784 55.4824 102.096C55.0844 105.487 54.7099 108.882 54.3589 112.282C54.6414 121.67 55.3476 134.031 55.5402 136.399C55.9103 139.434 56.4914 142.443 57.28 145.407C57.28 145.407 52.6448 133.675 52.9401 135.584C53.2355 137.493 52.067 161.23 53.229 165.597L54.4103 169.959L51.3159 167.603C51.8809 207.283 62.4352 203.248 75.3713 203.248C88.3073 203.248 98.8424 207.277 99.4202 167.676L96.4542 169.959Z" fill="white"/>
  <path d="M90.0466 154.409L75.91 173.457L75.2744 135.529L89.7577 120.033L75.2102 131.614L74.6389 97.3474L73.1366 149.286L61.3433 134.49L72.944 155.804L69.9138 260.249H77.3545L76.0577 182.266L90.0466 154.409Z" fill="#949494"/>
  <g fill="#263238">
    <path d="M242.518 27.75L248.02 45.5299L251.512 44.1525L249.124 24.2218L242.518 27.75Z"/>
    <path d="M232.24 33.6525L243.873 48.599L246.646 46.1764L237.164 28.2152L232.24 33.6525Z"/>
    <path d="M224.723 42.5152L241.087 52.8098L242.814 49.6441L227.375 35.8152L224.723 42.5152Z"/>
    <path d="M220.884 53.2568L240.003 57.6671L240.471 54.1329L220.942 46.1159L220.884 53.2568Z"/>
    <path d="M221.179 64.5907L240.747 62.5789L239.906 59.1111L218.637 57.8605L221.179 64.5907Z"/>
    <path d="M225.576 75.1451L243.231 66.9589L241.183 63.9684L220.736 69.6353L225.576 75.1451Z"/>
    <path d="M233.544 83.6515L247.16 70.2697L244.143 68.1189L226.996 80.0326L233.544 83.6515Z"/>
    <path d="M244.118 89.0766L252.053 72.1243L248.439 71.0731L236.652 87.7837L244.118 89.0766Z"/>
    <path d="M256.033 90.7682L257.323 72.2874L253.548 72.4627L248.541 91.9584L256.033 90.7682Z"/>
    <path d="M267.839 88.5267L262.337 70.7408L258.851 72.1242L261.233 92.0549L267.839 88.5267Z"/>
    <path d="M278.124 82.6184L266.485 67.6779L263.711 70.1005L273.2 88.0617L278.124 82.6184Z"/>
    <path d="M285.634 73.7555L269.269 63.4669L267.542 66.6327L282.982 80.4555L285.634 73.7555Z"/>
    <path d="M289.474 63.0139L270.356 58.6096L269.887 62.1378L289.423 70.1609L289.474 63.0139Z"/>
    <path d="M289.179 51.6801L269.611 53.6919L270.452 57.1657L291.727 58.4163L289.179 51.6801Z"/>
    <path d="M284.787 41.1258L267.125 49.3179L269.18 52.3085L289.621 46.6355L284.787 41.1258Z"/>
    <path d="M276.82 32.6254L263.204 46.0012L266.215 48.1519L283.368 36.2442L276.82 32.6254Z"/>
    <path d="M266.239 27.2003L258.304 44.1525L261.919 45.2037L273.706 28.4931L266.239 27.2003Z"/>
    <path d="M254.325 25.5026L253.035 43.9894L256.816 43.8142L261.817 24.3185L254.325 25.5026Z"/>
  </g>
  <path d="M266.006 81.9986C279.997 76.3745 286.494 61.1417 280.518 47.9753C274.541 34.8088 258.354 28.6946 244.363 34.3187C230.372 39.9428 223.875 55.1755 229.851 68.342C235.827 81.5084 252.014 87.6227 266.006 81.9986Z" stroke="#263238" stroke-miterlimit="10"/>
  <path d="M255.18 72.4687C263.59 72.4687 270.408 66.0528 270.408 58.1384C270.408 50.224 263.59 43.8081 255.18 43.8081C246.769 43.8081 239.952 50.224 239.952 58.1384C239.952 66.0528 246.769 72.4687 255.18 72.4687Z" stroke="#263238" stroke-miterlimit="10"/>
  <path d="M255.012 62.1801L227.111 260.919" stroke="#263238" stroke-miterlimit="10"/>
  <path d="M255.011 62.1801L282.912 260.919" stroke="#263238" stroke-miterlimit="10"/>
  <path d="M255.011 62.1801V260.949" stroke="#263238" stroke-width="3" stroke-miterlimit="10"/>
  <path d="M250.473 64.1254H259.55V59.4675L252.533 47.8196H248.823L250.473 59.0748V64.1254Z" fill="#263238" stroke="#263238" stroke-miterlimit="10"/>
  <path d="M210.869 59.8542L218.297 67.2307L213.341 77.7126L182.403 85.8625L179.925 61.7935L210.869 59.8542Z" fill="#C2C2C2" stroke="#263238" stroke-miterlimit="10"/>
  <path d="M255.011 68.0041H204.679" stroke="#263238" stroke-miterlimit="10"/>
  <path d="M0.0716553 260.949H311.398" stroke="#263238" stroke-miterlimit="10"/>
</svg>
