<svg width="291" height="276" viewBox="0 0 291 276" fill="none" xmlns="http://www.w3.org/2000/svg">
  <g stroke="#263238" stroke-linecap="round" stroke-linejoin="round">
    <path d="M234.762 18.8366C231.711 17.1679 230.323 18.5563 229.208 17.1679C228.094 15.7795 232.265 12.1684 223.935 8.56374C223.935 8.56374 223.381 0.787408 211.993 0.507121C200.606 0.226834 203.663 8.30301 200.586 10.2455C197.51 12.1879 196.675 9.13735 193.644 11.0798C190.613 13.0223 191.976 16.9463 189.479 17.4677C186.983 17.9892 183.645 14.9647 180.595 16.9137C177.544 18.8627 177.538 20.5183 176.149 20.5183C174.761 20.5183 171.984 19.4102 170.322 20.5183C168.66 21.6264 166.711 23.0213 166.711 23.0213H236.984C236.984 23.0213 237.819 20.5183 234.762 18.8366Z"/>
    <path d="M199.146 38.8152C197.543 37.9417 196.819 38.6718 196.232 37.9417C195.646 37.2117 197.836 35.3344 193.469 33.431C193.469 33.431 193.175 29.3506 187.211 29.2072C181.247 29.0638 182.844 33.2811 181.24 34.3045C179.637 35.3279 179.2 33.7178 177.603 34.7412C176.006 35.7646 176.73 37.7983 175.42 38.0851C174.109 38.3719 172.356 36.7814 170.759 37.7983C169.162 38.8152 169.155 39.6886 168.425 39.6886C167.695 39.6886 166.242 39.1085 165.368 39.6886C164.495 40.2687 163.478 40.9923 163.478 40.9923H200.313C200.313 40.9923 200.75 39.6951 199.146 38.8152Z"/>
  </g>
  <path d="M14.5406 100.641C14.5406 100.641 43.873 103.542 58.7151 121.715C58.7151 121.715 74.4112 100.661 102.609 101.098C109.496 92.7865 113.881 82.6902 115.252 71.984C116.624 61.2779 114.926 50.4024 110.357 40.6237C105.787 30.845 98.5344 22.5653 89.4422 16.7486C80.35 10.9319 69.7925 7.81755 58.999 7.76803C48.2055 7.7185 37.62 10.7359 28.4748 16.4689C19.3295 22.2019 12.0009 30.4146 7.34201 40.151C2.68313 49.8874 0.885697 60.7468 2.15896 71.4651C3.43223 82.1834 7.72381 92.3195 14.5341 100.693L14.5406 100.641Z" fill="#265C38"/>
  <path opacity="0.5" d="M14.5406 100.641C14.5406 100.641 43.873 103.542 58.7151 121.715C58.7151 121.715 74.4112 100.661 102.609 101.098C109.496 92.7865 113.881 82.6902 115.252 71.984C116.624 61.2779 114.926 50.4024 110.357 40.6237C105.787 30.845 98.5344 22.5653 89.4422 16.7486C80.35 10.9319 69.7925 7.81755 58.999 7.76803C48.2055 7.7185 37.62 10.7359 28.4748 16.4689C19.3295 22.2019 12.0009 30.4146 7.34201 40.151C2.68313 49.8874 0.885697 60.7468 2.15896 71.4651C3.43223 82.1834 7.72381 92.3195 14.5341 100.693L14.5406 100.641Z" fill="white"/>
  <g fill="#263238">
    <path d="M57.7446 11.7708L56.7538 235.896H61.7077L57.7446 11.7708Z"/>
    <path d="M59.2301 116.174C59.2301 116.174 69.1249 98.3664 86.9394 92.9236C86.9394 92.9236 68.1341 97.3756 58.7347 112.713L59.2301 116.174Z"/>
    <path d="M59.2301 65.7097C59.2301 65.7097 69.1249 47.8952 86.9394 42.4524C86.9394 42.4524 68.1341 46.9044 58.7347 62.2419L59.2301 65.7097Z"/>
    <path d="M59.2301 90.942C59.2301 90.942 69.1249 73.1275 86.9394 67.6847C86.9394 67.6847 68.1341 72.1367 58.7347 87.4808L59.2301 90.942Z"/>
    <path d="M57.7635 78.5703C57.7635 78.5703 48.2142 60.7558 31.0385 55.313C31.0385 55.313 49.1854 59.7715 58.2524 75.1091L57.7635 78.5703Z"/>
    <path d="M57.7635 103.314C57.7635 103.314 48.2142 85.4992 31.0385 80.0565C31.0385 80.0565 49.1854 84.5085 58.2524 99.846L57.7635 103.314Z"/>
  </g>
  <path d="M203.063 119.825C203.063 119.825 228.224 122.315 240.974 137.913C240.974 137.913 254.441 119.844 278.636 120.216C284.544 113.084 288.304 104.421 289.48 95.2355C290.656 86.0498 289.198 76.7192 285.277 68.3297C281.356 59.9401 275.133 52.8369 267.331 47.8468C259.53 42.8567 250.472 40.1849 241.212 40.1426C231.951 40.1003 222.869 42.6891 215.023 47.6077C207.176 52.5263 200.888 59.5723 196.891 67.9256C192.893 76.279 191.35 85.5959 192.442 94.792C193.534 103.988 197.215 112.685 203.057 119.87L203.063 119.825Z" fill="#265C38"/>
  <path opacity="0.5" d="M203.063 119.825C203.063 119.825 228.224 122.315 240.974 137.913C240.974 137.913 254.441 119.844 278.636 120.216C284.544 113.084 288.304 104.421 289.48 95.2355C290.656 86.0498 289.198 76.7192 285.277 68.3297C281.356 59.9401 275.133 52.8369 267.331 47.8468C259.53 42.8567 250.472 40.1849 241.212 40.1426C231.951 40.1003 222.869 42.6891 215.023 47.6077C207.176 52.5263 200.888 59.5723 196.891 67.9256C192.893 76.279 191.35 85.5959 192.442 94.792C193.534 103.988 197.215 112.685 203.057 119.87L203.063 119.825Z" fill="white"/>
  <g fill="#263238">
    <path d="M240.14 43.5605L239.292 235.896H243.536L240.14 43.5605Z"/>
    <path d="M241.41 133.155C241.41 133.155 249.884 117.869 265.189 113.202C265.189 113.202 249.056 117.022 240.987 130.15L241.41 133.155Z"/>
    <path d="M241.41 89.847C241.41 89.847 249.884 74.5616 265.189 69.8879C265.189 69.8879 249.056 73.7077 240.987 86.8746L241.41 89.847Z"/>
    <path d="M241.41 111.501C241.41 111.501 249.884 96.2153 265.189 91.5417C265.189 91.5417 249.056 95.3679 240.987 108.528L241.41 111.501Z"/>
    <path d="M240.152 100.889C240.152 100.889 231.959 85.597 217.208 80.9299C217.208 80.9299 232.78 84.7496 240.563 97.9166L240.152 100.889Z"/>
    <path d="M240.152 122.119C240.152 122.119 231.959 106.834 217.208 102.16C217.208 102.16 232.78 105.98 240.563 119.147L240.152 122.119Z"/>
  </g>
  <path d="M144.294 236.698C144.386 234.657 144.112 230.792 141.896 224.965C138.422 215.839 132.34 234.09 132.34 234.09C132.34 234.09 132.34 231.92 125.822 224.965C119.303 218.01 113.652 230.179 113.652 230.179C113.652 230.179 116.696 201.069 109.304 203.239C101.913 205.41 102.786 230.179 102.786 230.179C102.786 230.179 97.5713 211.928 90.6228 211.928C83.6743 211.928 81.9274 224.965 81.9274 224.965C81.9274 224.965 80.1935 201.936 73.2385 201.499C66.2835 201.062 58.4876 220.624 58.4876 220.624C58.4876 220.624 60.6647 194.55 53.7097 193.247C46.7547 191.943 44.1473 202.803 44.1473 202.803C44.1473 202.803 38.0658 166.737 26.3328 171.084C14.5999 175.432 24.5924 215.409 24.5924 215.409C24.5924 215.409 12.8595 187.595 3.2776 194.114C-5.39174 200.045 5.64374 231.098 7.7296 236.698H144.294Z" fill="#265C38"/>
  <path d="M277.646 236.698C277.737 234.657 277.464 230.792 275.247 224.965C271.773 215.839 265.692 234.09 265.692 234.09C265.692 234.09 265.692 231.92 259.173 224.965C252.655 218.01 247.004 230.179 247.004 230.179C247.004 230.179 250.048 201.069 242.656 203.239C235.264 205.41 236.138 230.179 236.138 230.179C236.138 230.179 230.923 211.928 223.974 211.928C217.026 211.928 215.279 224.965 215.279 224.965C215.279 224.965 213.545 201.936 206.59 201.499C199.635 201.062 191.813 220.624 191.813 220.624C191.813 220.624 193.99 194.55 187.035 193.247C180.08 191.943 177.473 202.803 177.473 202.803C177.473 202.803 171.391 166.737 159.658 171.084C147.925 175.432 157.918 215.409 157.918 215.409C157.918 215.409 146.185 187.595 136.629 194.114C127.934 200.039 138.995 231.098 141.081 236.698H277.646Z" fill="#265C38"/>
  <g stroke="#263238" stroke-linecap="round" stroke-linejoin="round">
    <path d="M4.14377 237.571C4.14377 237.571 -1.07087 221.054 1.53645 218.447C4.14377 215.839 15.4661 227.142 15.4661 227.142C15.4661 227.142 7.21388 199.328 20.2505 195.854C33.2871 192.38 35.4316 222.794 35.4316 222.794C35.4316 222.794 44.994 208.891 47.1645 214.105C48.4848 217.279 49.2286 220.663 49.3612 224.098C49.3612 224.098 54.1457 186.292 65.0051 188.032C75.8646 189.772 65.8786 227.142 65.8786 227.142C65.8786 227.142 71.9602 214.105 78.9152 215.409C85.8702 216.713 88.471 224.965 88.471 224.965C88.471 224.965 91.5151 217.58 93.6857 217.58C95.8563 217.58 98.4701 230.616 98.4701 230.616C98.4701 230.616 101.077 210.625 105.855 211.498C110.633 212.371 120.606 229.312 120.606 229.312C120.606 229.312 118.866 219.75 124.081 219.32C129.295 218.89 132.339 234.09 132.339 234.09C132.339 234.09 139.288 219.75 143.635 222.357C147.983 224.965 145.832 238.875 145.832 238.875"/>
    <path d="M137.495 237.571C137.495 237.571 132.28 221.054 134.888 218.447C137.495 215.839 148.791 227.142 148.791 227.142C148.791 227.142 140.539 199.328 153.576 195.854C166.612 192.38 168.783 222.794 168.783 222.794C168.783 222.794 178.345 208.891 180.516 214.105C181.827 217.281 182.562 220.665 182.686 224.098C182.686 224.098 187.471 186.292 198.33 188.032C209.19 189.772 199.204 227.142 199.204 227.142C199.204 227.142 205.285 214.105 212.24 215.409C219.195 216.713 221.796 224.965 221.796 224.965C221.796 224.965 224.84 217.58 227.011 217.58C229.181 217.58 231.795 230.616 231.795 230.616C231.795 230.616 234.403 210.625 239.181 211.498C243.958 212.371 253.958 229.312 253.958 229.312C253.958 229.312 252.217 219.75 257.432 219.32C262.646 218.89 265.69 234.09 265.69 234.09C265.69 234.09 272.639 219.75 276.987 222.357C281.334 224.965 279.157 238.875 279.157 238.875"/>
  </g>
  <path d="M263.781 191.076H174.011V114.603L217.234 78.6942L263.781 114.603V191.076Z" fill="white" stroke="#263238" stroke-linecap="round" stroke-linejoin="round"/>
  <path d="M217.899 191.076H128.129V114.603L171.352 78.6942L217.899 114.603V191.076Z" fill="#CCCCCC" stroke="#263238" stroke-linecap="round" stroke-linejoin="round"/>
  <path d="M171.789 78.0424H217.671L265.307 114.727H219.425L171.789 78.0424Z" fill="white" stroke="#263238" stroke-linecap="round" stroke-linejoin="round"/>
  <path d="M219.372 112.179L173.262 76.2433C172.701 75.8048 172.007 75.572 171.295 75.5839C170.583 75.5957 169.897 75.8515 169.351 76.3085L125.789 112.609V120.685L171.417 82.6769L219.372 120.046V112.179Z" fill="#B2B2B2" stroke="#263238" stroke-linecap="round" stroke-linejoin="round"/>
  <g stroke="#263238" stroke-linecap="round" stroke-linejoin="round">
    <path d="M127.902 117.354H262.928"/>
    <path d="M127.902 135.449H263.345"/>
    <path d="M127.902 153.55H222.534"/>
    <path d="M127.902 171.652H222.854"/>
    <path d="M185.517 87.3179H229.476"/>
    <path d="M197.803 96.6521H241.463"/>
    <path d="M210.084 105.98H253.607"/>
  </g>
  <path d="M250.459 191.076H288.206V162.344L250.459 142.176V191.076Z" fill="white" stroke="#263238" stroke-linecap="round" stroke-linejoin="round"/>
  <path d="M254.624 162.37H289.783L258.73 142.176H222.534L254.624 162.37Z" fill="white" stroke="#263238" stroke-linecap="round" stroke-linejoin="round"/>
  <path d="M186.338 149.19H155.825V191.076H186.338V149.19Z" fill="#263238" stroke="#263238" stroke-linecap="round" stroke-linejoin="round"/>
  <path d="M186.338 108.333H155.825V150.22H186.338V108.333Z" fill="#CCCCCC" stroke="#263238" stroke-linecap="round" stroke-linejoin="round"/>
  <path d="M155.793 191.076H186.821L165.167 238.875H134.14L155.793 191.076Z" fill="white" stroke="#263238" stroke-linecap="round" stroke-linejoin="round"/>
  <path d="M106.071 275.658C161.871 275.658 207.105 269.529 207.105 261.969C207.105 254.409 161.871 248.281 106.071 248.281C50.2719 248.281 5.0376 254.409 5.0376 261.969C5.0376 269.529 50.2719 275.658 106.071 275.658Z" fill="#265C38"/>
  <path opacity="0.5" d="M106.071 275.658C161.871 275.658 207.105 269.529 207.105 261.969C207.105 254.409 161.871 248.281 106.071 248.281C50.2719 248.281 5.0376 254.409 5.0376 261.969C5.0376 269.529 50.2719 275.658 106.071 275.658Z" fill="white"/>
  <path d="M101.834 69.0275C101.834 69.0275 85.0235 73.7076 80.4607 75.0113C75.8979 76.3149 73.4796 85.975 72.8278 97.0562C72.1759 108.137 68.9168 147.247 68.5909 148.877C68.2649 150.506 64.556 165.498 65.5338 170.713C66.5115 175.928 75.761 238.503 75.761 238.503C75.761 238.503 73.1537 242.414 73.8055 243.392C74.4573 244.37 74.7832 249.258 74.7832 249.258C74.7832 249.258 82.9311 252.192 88.1458 252.192C93.3604 252.192 99.8787 250.236 99.8787 250.236C99.8787 250.236 98.2491 238.177 98.901 231.007C99.5528 223.837 99.5528 176.905 99.5528 176.905L106.071 251.214C106.071 251.214 113.893 253.495 120.737 253.169C127.581 252.844 134.752 248.933 134.752 248.933C134.752 248.933 135.729 243.392 135.078 240.785C134.426 238.177 130.515 233.615 130.515 231.985C130.515 230.355 133.774 175.928 133.774 175.928C133.774 175.928 135.729 160.61 135.403 152.788C135.078 144.966 135.729 126.714 135.729 126.714C135.729 126.714 137.033 110.093 138.011 100.641C138.989 91.1897 139.262 82.7159 138.936 80.7604C138.61 78.8049 122.693 72.2866 118.782 70.983C114.871 69.6793 106.723 69.3534 101.834 69.0275Z" fill="white" stroke="#263238" stroke-linecap="round" stroke-linejoin="round"/>
  <path d="M99.5528 176.905L106.071 251.214C106.071 251.214 113.893 253.495 120.737 253.169C127.581 252.844 134.752 248.933 134.752 248.933C134.752 248.933 135.729 243.392 135.078 240.785C134.426 238.177 130.515 233.615 130.515 231.985C130.515 230.355 133.774 175.928 133.774 175.928C133.774 175.928 135.729 160.61 135.403 152.788C135.364 151.921 135.345 150.917 135.332 149.835C134.68 147.742 131.681 138.102 129.328 127.972C126.669 116.52 123.866 105.491 123.866 105.491L84.1044 102.232C82.2663 101.821 82.0642 103.868 82.0642 103.868L69.888 134.504C69.2362 142.326 68.6821 148.316 68.5844 148.935C68.265 150.506 64.556 165.498 65.5338 170.713C66.5115 175.928 75.761 238.503 75.761 238.503C75.761 238.503 73.1537 242.414 73.8055 243.392C74.4573 244.37 74.7833 249.258 74.7833 249.258C74.7833 249.258 82.9311 252.192 88.1458 252.192C93.3604 252.192 99.8787 250.236 99.8787 250.236C99.8787 250.236 98.2491 238.177 98.901 231.007C99.5528 223.837 99.5528 176.905 99.5528 176.905Z" fill="#265C38" stroke="#263238" stroke-linecap="round" stroke-linejoin="round"/>
  <path d="M96.7497 66.2572C96.7497 66.2572 93.7252 70.5788 93.5818 74.9004C93.4384 79.2221 91.711 84.6779 93.5818 84.9777C95.4525 85.2776 102.056 79.359 104.096 79.7957C106.136 80.2324 111.722 87.1353 113.019 86.9658C114.316 86.7963 116.767 81.3536 116.767 75.1612C116.767 68.9688 116.331 67.6717 112.856 65.6575C109.382 63.6433 101.358 61.5053 96.7497 66.2572Z" fill="white" stroke="#263238" stroke-linecap="round" stroke-linejoin="round"/>
  <path d="M95.2509 40.7641C95.2509 40.7641 92.9304 59.6085 94.5208 64.23C96.1113 68.8515 102.343 73.2187 108.151 72.9254C113.958 72.6321 119.316 69.738 121.187 67.7108C123.058 65.6836 125.535 42.0482 125.535 42.0482C125.535 42.0482 119.303 38.7109 109.441 37.7005C99.579 36.6902 95.2509 40.7641 95.2509 40.7641Z" fill="white" stroke="#263238" stroke-linecap="round" stroke-linejoin="round"/>
  <path d="M105.68 40.347C105.68 40.347 100.634 39.7668 98.1901 41.9309" stroke="#263238" stroke-width="3" stroke-linecap="round" stroke-linejoin="round"/>
  <path d="M113.893 41.9244C113.893 41.9244 118.645 40.7706 121.382 44.5317" stroke="#263238" stroke-width="3" stroke-linecap="round" stroke-linejoin="round"/>
  <path d="M106.684 46.0961C106.684 46.0961 104.813 53.012 105.1 53.729C105.387 54.446 107.838 55.0327 109.852 54.7394C111.866 54.446 111.286 45.9527 111.286 45.9527" stroke="#263238" stroke-linecap="round" stroke-linejoin="round"/>
  <path d="M72.176 122.966L36.1624 121.337L37.629 138.773H37.8115C38.8544 142.73 45.5813 146.035 53.8791 146.419C57.6402 146.595 61.7728 146.348 65.3578 144.979C69.0928 143.558 70.4356 139.979 70.9244 136.296C71.1265 134.817 71.8696 122.953 72.176 122.966Z" fill="#878787" stroke="#263238" stroke-linecap="round" stroke-linejoin="round"/>
  <path d="M56.2846 129.211C55.472 129.211 54.6506 129.191 53.8207 129.152C49.3678 129.017 44.9659 128.165 40.784 126.63C35.791 124.629 34.8328 122.295 34.9176 120.685C35.0023 119.075 36.1626 116.846 41.3251 115.307C45.6375 114.167 50.1051 113.727 54.5572 114.004C59.01 114.139 63.412 114.991 67.5938 116.526C72.5868 118.527 73.545 120.861 73.4603 122.471C73.3821 124.074 72.2153 126.31 67.0528 127.849C63.5447 128.804 59.92 129.262 56.2846 129.211Z" fill="#878787" stroke="#263238" stroke-linecap="round" stroke-linejoin="round"/>
  <path d="M0.0716553 260.949H290.233" stroke="#263238" stroke-linecap="round" stroke-linejoin="round"/>
</svg>
