<svg width="223" height="228" viewBox="0 0 223 228" fill="none" xmlns="http://www.w3.org/2000/svg">
<path d="M162.514 13.6176V192.69C162.514 198.149 158.534 202.595 153.63 202.595H65.9085C60.9926 202.595 57.0128 198.161 57.0128 192.69V13.6176C57.0128 2.46268 60.9926 0 65.9085 0H83.4822C84.5007 0 85.3367 1.21315 85.3367 2.66892V3.27549C85.3367 6.75722 87.1794 6.76935 89.4578 6.76935H130.08C132.359 6.76935 134.201 6.76935 134.201 3.27549V2.66892C134.201 1.18888 135.02 0 136.056 0H153.635C158.534 0 162.514 3.40287 162.514 13.6176Z" fill="white"/>
<path d="M151.722 79.6917L151.84 128.157C151.842 128.801 151.721 129.439 151.484 130.035C151.247 130.631 150.898 131.173 150.457 131.63C150.016 132.087 149.493 132.45 148.916 132.698C148.339 132.946 147.72 133.075 147.095 133.076L72.4906 133.276C71.2279 133.278 70.0161 132.764 69.121 131.846C68.2259 130.928 67.7206 129.682 67.716 128.381L67.5982 79.9162C67.5951 78.7058 68.0583 77.5437 68.8862 76.685C69.7141 75.8264 70.839 75.3414 72.0137 75.3365L147.277 75.1364C147.859 75.1348 148.436 75.2513 148.975 75.4794C149.513 75.7075 150.003 76.0426 150.415 76.4656C150.828 76.8886 151.156 77.3912 151.38 77.9447C151.604 78.4983 151.721 79.0919 151.722 79.6917Z" fill="#455A64"/>
<path d="M87.9958 83.6171L77.1514 83.6463C75.7858 83.65 74.6816 84.7936 74.6852 86.2006L74.7008 92.3512C74.7044 93.7582 75.8144 94.8958 77.18 94.8922L88.0244 94.8629C89.39 94.8592 90.4941 93.7156 90.4906 92.3086L90.4749 86.158C90.4714 84.751 89.3614 83.6134 87.9958 83.6171Z" fill="#265C38"/>
<path d="M142.02 89.6395H134.873C134.48 89.6411 134.09 89.5628 133.727 89.4089C133.363 89.2551 133.033 89.0288 132.754 88.7431C132.476 88.4574 132.255 88.1178 132.104 87.7439C131.954 87.37 131.876 86.9691 131.876 86.5642C131.874 86.1593 131.951 85.7581 132.1 85.3836C132.249 85.0091 132.469 84.6686 132.746 84.3818C133.023 84.0949 133.353 83.8673 133.716 83.712C134.079 83.5567 134.468 83.4767 134.861 83.4767H142.002C142.795 83.4767 143.557 83.8002 144.119 84.3764C144.682 84.9526 145 85.7348 145.005 86.5521C145.005 86.9567 144.929 87.3576 144.779 87.7317C144.63 88.1059 144.41 88.446 144.133 88.7327C143.856 89.0194 143.526 89.2471 143.164 89.4026C142.801 89.5582 142.413 89.6387 142.02 89.6395Z" fill="white"/>
<path d="M114.716 117.373L74.7645 117.481L74.7696 119.501L114.721 119.393L114.716 117.373Z" fill="#263238"/>
<path d="M103.059 121.9L74.776 121.976L74.7811 123.996L103.064 123.919L103.059 121.9Z" fill="#263238"/>
<path d="M128.803 83.9558H108.88V85.9757H128.803V83.9558Z" fill="#263238"/>
<path d="M148.914 139.53C152.578 139.53 155.549 136.469 155.549 132.694C155.549 128.918 152.578 125.858 148.914 125.858C145.249 125.858 142.279 128.918 142.279 132.694C142.279 136.469 145.249 139.53 148.914 139.53Z" fill="#265C38"/>
<path d="M147.024 137.073L144.54 133.076L145.576 132.397L147.136 134.908L151.999 128.642L152.958 129.431L147.024 137.073Z" fill="white"/>
<path d="M144.222 171.193H75.2104V184.811H144.222V171.193Z" fill="#265C38"/>
<path opacity="0.5" d="M147.624 149.387H139.365C137.69 149.387 136.333 150.785 136.333 152.511V152.796C136.333 154.521 137.69 155.92 139.365 155.92H147.624C149.299 155.92 150.656 154.521 150.656 152.796V152.511C150.656 150.785 149.299 149.387 147.624 149.387Z" fill="#265C38"/>
<path d="M150.144 152.656C150.144 153.206 149.986 153.743 149.69 154.2C149.394 154.657 148.973 155.013 148.48 155.223C147.987 155.433 147.445 155.488 146.922 155.381C146.399 155.274 145.918 155.009 145.541 154.621C145.164 154.232 144.907 153.737 144.803 153.198C144.699 152.659 144.753 152.101 144.957 151.593C145.161 151.085 145.506 150.652 145.95 150.346C146.393 150.041 146.915 149.878 147.448 149.878C148.163 149.878 148.849 150.171 149.355 150.692C149.86 151.213 150.144 151.919 150.144 152.656Z" fill="#265C38"/>
<path d="M146.582 221.199C147.978 221.466 186.069 215.807 187.387 214.642C187.894 214.205 187.417 208.437 186.646 201.486C186.646 201.413 186.646 201.34 186.646 201.267C186.487 199.836 181.618 176.107 181.618 176.107L156.126 179.813L162.013 204.64L162.078 205.064C162.078 205.064 148.437 213.951 147.124 215.376C145.811 216.802 145.187 220.944 146.582 221.199Z" fill="#F7A9A0"/>
<path d="M187.387 214.642C186.069 215.813 147.978 221.472 146.582 221.205C145.187 220.938 145.805 216.826 147.118 215.394C148.431 213.963 162.078 205.083 162.078 205.083L162.001 204.658L161.33 201.789L186.01 197.943C186.204 198.956 186.598 201.049 186.598 201.261C186.598 201.334 186.598 201.407 186.628 201.473C187.417 208.461 187.894 214.212 187.387 214.642Z" fill="#265C38"/>
<path d="M158.333 200.248L186.981 196.178C186.981 196.178 179.846 145.833 180.064 144.662C180.34 143.17 197.137 72.5464 197.137 72.5464H173.646C173.646 72.5464 154.324 138.056 153.582 144.377C152.364 154.591 158.333 200.248 158.333 200.248Z" fill="#37474F"/>
<path d="M171.162 227.774C172.516 228.217 210.996 227.489 212.444 226.5C212.997 226.137 213.221 220.35 213.297 213.356V213.138C213.297 211.694 212.532 187.522 212.532 187.522L187.376 187.922L188.471 213.314V213.75C188.471 213.75 173.864 220.817 172.381 222.073C170.897 223.328 169.808 227.338 171.162 227.774Z" fill="#F7A9A0"/>
<path d="M213.327 210.366C213.327 211.306 213.327 212.228 213.327 213.138V213.356C213.25 220.35 213.027 226.137 212.467 226.501C211.025 227.489 172.54 228.217 171.186 227.774C169.831 227.332 170.95 223.334 172.422 222.079C173.894 220.823 188.512 213.757 188.512 213.757V213.32L188.4 210.621L213.327 210.366Z" fill="#265C38"/>
<path d="M174.388 72.5464C174.388 72.5464 174.93 84.1259 177.503 93.2973C177.709 94.0555 177.932 94.8016 178.174 95.5174C178.174 95.5174 179.192 95.5174 183.284 98.0892L186.687 209.019L214.404 208.716C214.404 208.716 209.983 149.927 210.018 146.16C210.071 140.094 206.845 99.1143 207.181 98.0771C210.625 87.4924 204.926 72.5464 204.926 72.5464H174.388Z" fill="#37474F"/>
<path d="M176.72 57.5581C178.204 58.7681 179.818 59.7998 181.529 60.6334C178.921 56.0962 179.316 45.8512 179.634 47.2888C181.159 54.2765 185.421 61.9254 187.046 62.3075H187.075C191.111 62.7878 195.189 61.8998 198.691 59.7781C195.329 54.6465 195.465 44.2256 195.688 44.8625C198.161 51.6561 203.265 55.6292 204.149 55.617C207.422 52.3901 209.153 49.1692 208.688 48.8416C205.291 46.4638 202.4 40.3496 199.792 33.8532C197.213 27.466 195.906 21.3881 192.28 15.6863C188.959 10.4638 182.33 9.47504 178.574 12.144C168.719 19.1499 174.618 55.8597 176.72 57.5581Z" fill="#263238"/>
<path d="M187.175 38.9301C186.911 39.5367 183.19 43.1094 180.381 42.424C179.469 42.1935 180.44 36.9648 180.44 36.9648V36.5645L180.264 30.9598L187.14 28.0967L188.123 27.7328C188.123 27.7328 188.076 29.2735 188 31.1842C188 31.2752 188 31.3662 188 31.4571C188 31.5481 188 31.6694 188 31.7726C188 32.0576 188 32.3488 188 32.64C188 32.9311 188 33.0767 187.958 33.3072C187.917 33.5377 187.923 33.7682 187.911 33.9987C187.774 35.6577 187.528 37.3053 187.175 38.9301Z" fill="#F7A9A0"/>
<path d="M173.823 22.3587C172.516 32.1184 178.038 34.0231 180.081 34.3142C181.936 34.575 188.282 35.2241 190.561 25.6584C192.839 16.0928 188.847 12.3805 184.644 11.5556C180.44 10.7307 175.106 12.605 173.823 22.3587Z" fill="#F7A9A0"/>
<path d="M189.731 25.6948C187.376 25.5189 186.987 18.0762 186.946 17.1664C186.946 17.7729 186.91 20.8058 186.681 20.9089C186.431 20.8912 186.184 20.8339 185.951 20.7391C185.964 20.3724 185.948 20.0052 185.904 19.6412C185.904 19.4713 185.827 20.0051 185.715 20.6602L185.286 20.5207C185.341 19.7416 185.295 18.9583 185.15 18.1915C185.091 17.9003 184.968 19.1923 184.662 20.3205C182.687 19.6387 180.645 19.183 178.574 18.9618C177.985 18.9194 177.485 18.9072 177.037 18.9072C177.067 18.0095 177.202 17.0511 177.132 17.2574C176.937 17.7956 176.795 18.3523 176.708 18.9194C176.46 18.9194 176.237 18.9194 176.037 18.9194C176.037 17.6395 176.69 15.6317 176.478 15.935C175.856 16.8692 175.412 17.9171 175.171 19.0225C174.317 19.162 174.082 19.3197 174.064 19.0953C174.421 16.603 175.624 14.3222 177.461 12.6595C180.493 9.93602 186.357 9.45683 189.483 13.9576C189.483 13.9576 192.127 15.8865 192.427 18.8102C192.727 21.7339 191.079 25.7979 189.731 25.6948Z" fill="#263238"/>
<path d="M194.117 39.4762C205.132 48.7507 214.039 62.9324 214.51 66.5233C215.028 70.4782 213.686 84.8357 210.054 92.1267C209.094 94.0496 194.853 85.2967 195.795 83.198C197.608 79.1582 200.298 68.0883 199.916 65.8864C199.557 63.8483 193.946 51.5774 190.107 45.1356C186.551 39.2275 188.989 35.1635 194.117 39.4762Z" fill="#F7A9A0"/>
<path d="188.818 43.9345C190.943 50.1094 199.521 64.7945 199.468 66.2078C199.415 67.6212 195.229 82.3487 195.229 82.3487L212.238 92.988C212.238 92.988 216.029 72.9347 214.593 65.9592C213.504 60.5971 201.517 45.0324 195.688 40.2405C189.86 35.4486 186.098 36.0248 188.818 43.9345Z" fill="#265C38"/>
<path d="182.301 47.313C178.038 58.759 167.724 74.0022 163.043 74.3964C160.818 74.5966 156.873 75.4398 153.765 73.0195C146.971 67.7423 140.86 57.1273 139.323 50.9039C138.782 48.6899 149.026 43.0185 150.721 44.7472C154.683 48.7445 159.552 56.818 160.176 56.7209C162.561 56.3509 171.362 47.6223 177.52 41.4474C184.979 33.9745 183.996 42.7516 182.301 47.313Z" fill="#F7A9A0"/>
<path d="154.295 48.5685L142.002 63.2537C142.002 63.2537 152.529 73.8626 155.955 74.6997C158.741 75.3758 161.654 75.2478 164.374 74.3297C166.77 73.62 178.551 59.5536 182.424 48.0529C186.298 36.5523 182.142 36.0003 175.53 42.9638C168.919 49.9272 160.736 56.7815 160.341 56.3084C159.947 55.8353 154.295 48.5685 154.295 48.5685Z" fill="#265C38"/>
<path d="151.875 22.2434L157.338 39.7613C157.55 40.2768 157.338 40.7136 156.826 40.75L147.907 41.3565C147.634 41.3519 147.367 41.2681 147.138 41.1147C146.909 40.9613 146.727 40.7445 146.612 40.4891L141.154 22.9653C140.936 22.4557 141.154 22.0129 141.661 21.9826L150.58 21.376C150.853 21.3792 151.12 21.4625 151.35 21.616C151.579 21.7696 151.761 21.9872 151.875 22.2434Z" fill="#A6A6A6"/>
<path d="150.815 22.304L156.267 39.834C156.327 39.9302 156.36 40.0409 156.365 40.1549C156.369 40.2689 156.344 40.382 156.291 40.4826C156.239 40.5833 156.162 40.6678 156.068 40.7276C155.974 40.7873 155.865 40.8202 155.755 40.8227L146.835 41.4293C146.563 41.4266 146.296 41.3443 146.067 41.1918C145.838 41.0394 145.655 40.823 145.54 40.5679L140.083 23.0441C139.865 22.5345 140.083 22.0917 140.589 22.0614L149.508 21.4548C149.782 21.4541 150.05 21.5336 150.281 21.6839C150.513 21.8343 150.698 22.0494 150.815 22.304Z" fill="#DBDBDB"/>
<path d="34.1994 177.593H60.1801C61.8207 177.591 63.3936 176.919 64.5537 175.724C65.7138 174.528 66.3662 172.908 66.3677 171.218V121.115C66.3721 120.238 66.5491 119.372 66.888 118.568C67.2269 117.764 67.7206 117.039 68.3392 116.437C68.9579 115.836 69.6886 115.37 70.4872 115.067C71.2857 114.765 72.1355 114.633 72.9851 114.679H40.387C38.7464 114.681 37.1735 115.353 36.0134 116.548C34.8534 117.743 34.201 119.364 34.1994 121.054V177.593Z" fill="#265C38"/>
<path opacity="0.1" d="M34.1994 177.593H60.1801C61.8207 177.591 63.3936 176.919 64.5537 175.724C65.7138 174.528 66.3662 172.908 66.3677 171.218V121.115C66.3721 120.238 66.5491 119.372 66.888 118.568C67.2269 117.764 67.7206 117.039 68.3392 116.437C68.9579 115.836 69.6886 115.37 70.4872 115.067C71.2857 114.765 72.1355 114.633 72.9851 114.679H40.387C38.7464 114.681 37.1735 115.353 36.0134 116.548C34.8534 117.743 34.201 119.364 34.1994 121.054V177.593Z" fill="black"/>
<path d="M9.08401 156.381V216.874H28.7536V216.953C28.7516 218.633 29.3881 220.248 30.527 221.451C31.6658 222.654 33.2165 223.349 34.8469 223.389H35.0589C35.2713 223.389 35.4836 223.377 35.6947 223.352L36.8722 223.104C37.1603 223.009 37.4417 222.894 37.7141 222.758C37.8497 222.696 37.9814 222.625 38.1085 222.546C38.1759 222.508 38.2408 222.465 38.3028 222.418C38.4855 222.31 38.6605 222.188 38.8268 222.054L38.9092 221.988C39.0297 221.893 39.1437 221.789 39.2507 221.678C39.3124 221.625 39.3714 221.568 39.4273 221.508C40.1449 220.778 40.6749 219.876 40.9698 218.882C40.9677 218.864 40.9677 218.846 40.9698 218.827C41.011 218.67 41.0522 218.512 41.0875 218.348C41.1359 218.149 41.1674 217.946 41.1817 217.742C41.1817 217.645 41.1817 217.554 41.1817 217.463C41.1846 217.43 41.1846 217.398 41.1817 217.366C41.1817 217.25 41.1817 217.135 41.1817 217.02V156.447C41.1853 155.57 41.3619 154.702 41.7007 153.897C42.0396 153.092 42.5337 152.366 43.1531 151.764C43.7725 151.161 44.5042 150.695 45.3038 150.393C46.1035 150.091 46.9544 149.959 47.8049 150.006H15.2951C14.4808 150.003 13.674 150.166 12.9209 150.486C12.1679 150.805 11.4833 151.274 10.9064 151.866C10.3295 152.458 9.87154 153.162 9.55884 153.936C9.24614 154.711 9.08479 155.542 9.08401 156.381Z" fill="#265C38"/>
<path d="M72.6142 114.691C70.9595 114.691 69.3725 115.367 68.2014 116.572C67.0303 117.776 66.3708 119.41 66.3677 121.115V133.246H78.8606V121.115C78.8575 119.41 78.198 117.776 77.0269 116.572C75.8558 115.367 74.2688 114.691 72.6142 114.691Z" fill="#265C38"/>
<path d="5.04387e-05 216.874V216.953C-0.00194181 218.634 0.63462 220.248 1.77347 221.451C2.91232 222.654 4.46295 223.349 6.09343 223.389H34.8707C33.2402 223.349 31.6896 222.654 30.5507 221.451C29.4119 220.248 28.7753 218.634 28.7773 216.953V216.868L5.04387e-05 216.874Z" fill="#265C38"/>
</svg>
